<svg width="48" height="48" viewBox="0 0 48 48" fill="none" xmlns="http://www.w3.org/2000/svg">
<path d="M22.1833 30.4352C22.47 30.4392 22.7567 30.4378 23.0433 30.4312L23.0441 32.4104L23.9404 32.4103L23.9413 33.1055L23.0428 33.1056L23.0417 37.3173C22.7552 37.311 22.468 37.3126 22.1814 37.3105C22.1484 35.9119 22.1716 34.5036 22.1824 33.1043L21.281 33.1044C21.2846 32.8738 21.2806 32.6426 21.2798 32.4118L22.1827 32.408C22.1641 31.7526 22.1725 31.0909 22.1833 30.4352Z" fill="#53B64A"/>
<path d="M24.966 29.4737L25.9057 29.4736L25.9051 36.4131L28.8679 36.4122C28.8656 36.7116 28.866 37.0111 28.8692 37.3105L24.9644 37.3115L24.966 29.4737Z" fill="#232021"/>
<path fill-rule="evenodd" clip-rule="evenodd" d="M12.6622 32.2261C12.6163 32.2267 12.5694 32.2272 12.525 32.2357C11.8714 32.3086 11.3222 32.5811 10.9091 33.101C10.4229 33.7129 10.283 34.5095 10.3726 35.2726C10.4535 35.9621 10.762 36.6035 11.3166 37.0359C11.8629 37.4618 12.5744 37.5856 13.2494 37.4966C13.9037 37.4103 14.4769 37.0873 14.8786 36.5614C14.9707 36.4402 15.0548 36.3137 15.1311 36.1819C15.0976 36.159 15.0641 36.136 15.0306 36.113C14.8497 35.9887 14.6688 35.8644 14.4822 35.749C14.4633 35.7783 14.4447 35.8078 14.426 35.8374C14.3859 35.9007 14.3459 35.9641 14.3033 36.0253C14.0011 36.4193 13.6348 36.7285 13.1261 36.7978C12.6942 36.8567 12.2507 36.7601 11.9048 36.4894C11.5507 36.2124 11.3451 35.7878 11.2962 35.3454C11.2838 35.2303 11.2772 35.1149 11.2766 34.9992L15.1575 34.9965C15.1499 34.18 15.0487 33.4213 14.4286 32.8196C13.947 32.3524 13.3449 32.2111 12.6975 32.2256C12.6858 32.2259 12.674 32.226 12.6622 32.2261ZM12.5769 32.9721C12.5737 32.9726 12.5705 32.973 12.5673 32.9735C12.161 33.0334 11.818 33.189 11.5686 33.5273C11.3956 33.7618 11.3199 34.023 11.2744 34.306L13.0041 34.3048L14.2497 34.304C14.2132 33.9091 14.0878 33.5338 13.7711 33.2756C13.4419 33.0072 12.9998 32.9349 12.5859 32.9711C12.5829 32.9713 12.5799 32.9717 12.5769 32.9721Z" fill="#53B64A"/>
<path fill-rule="evenodd" clip-rule="evenodd" d="M18.4077 32.2242C18.3227 32.2242 18.236 32.2241 18.1527 32.2352C17.5072 32.3067 16.9522 32.5876 16.543 33.0988C16.0564 33.7067 15.9195 34.5084 16.0073 35.2668C16.0851 35.9401 16.385 36.5855 16.9219 37.0143C17.4761 37.4569 18.1813 37.5787 18.8707 37.4972C19.5214 37.4203 20.0878 37.1039 20.4926 36.5883C20.5942 36.4589 20.6812 36.3222 20.7634 36.1799C20.5942 36.0562 20.4187 35.9408 20.2435 35.8255C20.2029 35.7987 20.1623 35.772 20.1218 35.7452L19.9702 35.9818C19.6668 36.3912 19.3065 36.713 18.7839 36.7917C18.3557 36.8561 17.9105 36.7699 17.5615 36.507C17.2036 36.2375 16.9924 35.8212 16.9351 35.3815C16.9185 35.2537 16.917 35.1259 16.9167 34.9973C17.3304 34.9973 17.7445 34.9955 18.1586 34.9937C19.0385 34.9899 19.9189 34.9861 20.7978 34.9995C20.7972 34.2146 20.6753 33.4351 20.0958 32.8518C19.6567 32.4098 19.0711 32.2211 18.4599 32.2242C18.4426 32.2242 18.4252 32.2242 18.4077 32.2242ZM18.2145 32.9721C18.2115 32.9724 18.2086 32.9728 18.2056 32.9732C17.8044 33.032 17.4598 33.1862 17.2093 33.5172C17.0321 33.7514 16.9593 34.0208 16.9087 34.3047L18.641 34.3045L19.8836 34.3042C19.8489 33.9133 19.7289 33.546 19.4186 33.2849C19.0776 32.9979 18.6445 32.9419 18.2145 32.9721Z" fill="#53B64A"/>
<path fill-rule="evenodd" clip-rule="evenodd" d="M33.6848 32.8557C33.1303 32.3951 32.4502 32.1912 31.7336 32.238C30.9574 32.338 30.3046 32.6463 29.8209 33.2765C29.3928 33.8343 29.2246 34.561 29.3197 35.2542C29.3259 35.2969 29.3331 35.3394 29.3413 35.3817C29.3495 35.424 29.3588 35.4661 29.3691 35.508C29.3794 35.5499 29.3908 35.5915 29.4031 35.6328C29.4155 35.6741 29.4288 35.7151 29.4432 35.7557C29.4576 35.7964 29.4729 35.8367 29.4893 35.8766C29.5056 35.9165 29.5229 35.9559 29.5412 35.995C29.5595 36.034 29.5787 36.0726 29.5989 36.1107C29.6191 36.1488 29.6401 36.1864 29.6622 36.2235C29.6842 36.2605 29.7071 36.2971 29.7309 36.333C29.7547 36.3689 29.7794 36.4043 29.805 36.439C29.8305 36.4738 29.8569 36.5078 29.8841 36.5413C29.9113 36.5747 29.9394 36.6074 29.9682 36.6395C29.997 36.6715 30.0266 36.7029 30.057 36.7335C30.0874 36.7641 30.1185 36.7939 30.1503 36.823C30.1822 36.8521 30.2147 36.8804 30.2479 36.9078C30.2811 36.9353 30.315 36.962 30.3495 36.9878C30.8799 37.3875 31.4878 37.5444 32.1451 37.5123C32.8874 37.4493 33.5451 37.1143 34.0267 36.5421C34.4779 36.006 34.6766 35.3206 34.6142 34.6265C34.6124 34.6052 34.6104 34.5839 34.6082 34.5626C34.6057 34.5413 34.603 34.5201 34.6001 34.4989C34.5974 34.4777 34.5943 34.4565 34.5907 34.4354C34.5873 34.4143 34.5838 34.3932 34.5799 34.3721C34.5759 34.3511 34.5718 34.3301 34.5675 34.3092C34.563 34.2883 34.5584 34.2674 34.5534 34.2466C34.5483 34.2258 34.543 34.205 34.5376 34.1843C34.5321 34.1637 34.5263 34.143 34.5205 34.1225C34.5145 34.1019 34.5082 34.0815 34.5017 34.0611C34.4952 34.0407 34.4885 34.0204 34.4816 34.0002C34.4744 33.98 34.4671 33.9598 34.4598 33.9398C34.4521 33.9198 34.4443 33.8998 34.4363 33.88C34.4284 33.8602 34.4203 33.8404 34.4117 33.8208C34.4032 33.8011 34.3944 33.7816 34.3852 33.7622C34.3763 33.7428 34.3671 33.7235 34.3577 33.7043C34.3483 33.6851 34.3386 33.666 34.3285 33.6471C34.3186 33.6281 34.3084 33.6093 34.2979 33.5906C34.2876 33.5719 34.277 33.5534 34.266 33.5349C34.2553 33.5165 34.2442 33.4982 34.2328 33.4801C34.2214 33.4619 34.2099 33.4439 34.1982 33.4261C34.1864 33.4082 34.1743 33.3905 34.162 33.373C34.1499 33.3554 34.1374 33.338 34.1247 33.3207C34.1122 33.3035 34.0993 33.2864 34.0861 33.2694C34.0731 33.2525 34.0598 33.2358 34.0463 33.2192C34.0328 33.2026 34.0191 33.1861 34.0052 33.1699C33.9913 33.1536 33.9772 33.1376 33.9628 33.1217C33.9485 33.1058 33.934 33.09 33.9193 33.0745C33.9046 33.0589 33.8897 33.0436 33.8746 33.0284C33.8595 33.0133 33.8443 32.9983 33.8288 32.9835C33.8133 32.9687 33.7977 32.9541 33.7819 32.9397C33.766 32.9253 33.75 32.9111 33.7339 32.8971C33.7177 32.8831 33.7013 32.8693 33.6848 32.8557ZM32.973 33.3583C32.5729 33.0628 32.1269 32.9951 31.6437 33.0474C31.1192 33.1922 30.7096 33.4394 30.433 33.9271C30.1829 34.368 30.1251 34.9294 30.2647 35.4162C30.273 35.4451 30.2819 35.4736 30.2916 35.502C30.3013 35.5304 30.3116 35.5585 30.3227 35.5864C30.3337 35.6143 30.3454 35.6419 30.3578 35.6692C30.3702 35.6965 30.3832 35.7235 30.3969 35.7501C30.4106 35.7768 30.4249 35.8031 30.4399 35.8291C30.4549 35.8551 30.4705 35.8807 30.4867 35.9059C30.5029 35.9311 30.5197 35.9559 30.5372 35.9803C30.5546 36.0047 30.5726 36.0286 30.5912 36.0521C30.6098 36.0756 30.629 36.0986 30.6487 36.1212C30.6684 36.1438 30.6887 36.1659 30.7095 36.1875C30.7303 36.2091 30.7516 36.2301 30.7734 36.2507C30.7953 36.2712 30.8176 36.2912 30.8404 36.3107C30.8632 36.3301 30.8864 36.349 30.9101 36.3673C30.9339 36.3857 30.958 36.4034 30.9826 36.4205C31.0072 36.4377 31.0322 36.4542 31.0576 36.4702C31.083 36.4861 31.1087 36.5014 31.1349 36.5161C31.1549 36.527 31.1751 36.5375 31.1955 36.5476C31.216 36.5576 31.2366 36.5673 31.2574 36.5766C31.2782 36.5859 31.2992 36.5947 31.3204 36.6031C31.3415 36.6115 31.3629 36.6195 31.3843 36.6271C31.4058 36.6346 31.4275 36.6418 31.4492 36.6484C31.471 36.6551 31.4929 36.6614 31.515 36.6672C31.537 36.673 31.5591 36.6783 31.5814 36.6832C31.6036 36.6882 31.626 36.6926 31.6484 36.6966C31.6708 36.7006 31.6933 36.7042 31.7159 36.7073C31.7385 36.7104 31.7611 36.713 31.7837 36.7152C31.8064 36.7174 31.8291 36.7192 31.8519 36.7204C31.8746 36.7217 31.8974 36.7225 31.9202 36.7229C31.943 36.7232 31.9657 36.7231 31.9885 36.7226C32.0113 36.722 32.034 36.721 32.0568 36.7195C32.0795 36.718 32.1022 36.7161 32.1249 36.7137C32.1475 36.7113 32.1701 36.7085 32.1926 36.7052C32.6661 36.6384 33.0684 36.3965 33.3548 36.0125C33.6592 35.6043 33.7719 35.0773 33.6983 34.5762C33.694 34.5462 33.689 34.5163 33.6832 34.4865C33.6774 34.4568 33.6709 34.4272 33.6636 34.3977C33.6564 34.3683 33.6484 34.339 33.6397 34.31C33.6311 34.2809 33.6217 34.2521 33.6116 34.2235C33.6015 34.1949 33.5906 34.1666 33.5791 34.1386C33.5676 34.1105 33.5555 34.0828 33.5426 34.0553C33.5297 34.0279 33.5162 34.0007 33.502 33.974C33.4877 33.9472 33.4729 33.9208 33.4574 33.8947C33.4419 33.8687 33.4257 33.843 33.4089 33.8178C33.3922 33.7925 33.3748 33.7677 33.3567 33.7433C33.3388 33.7189 33.3202 33.695 33.301 33.6715C33.2818 33.648 33.262 33.625 33.2417 33.6025C33.2214 33.5801 33.2005 33.5581 33.1791 33.5366C33.1577 33.5151 33.1358 33.4942 33.1134 33.4738C33.0909 33.4534 33.068 33.4336 33.0446 33.4143C33.0212 33.3951 32.9973 33.3764 32.973 33.3583Z" fill="#232021"/>
<path fill-rule="evenodd" clip-rule="evenodd" d="M38.0819 32.2416C37.9314 32.2276 37.776 32.2274 37.6256 32.2377C36.9941 32.3229 36.4794 32.5375 36.0795 33.0621C35.5833 33.7132 35.4722 34.626 35.5856 35.4177C35.6803 36.0796 35.9879 36.7035 36.5341 37.1071C37.0072 37.457 37.6394 37.5853 38.2182 37.4953C38.6143 37.4336 39.1307 37.2097 39.3624 36.8644C39.3715 36.8506 39.3718 36.8493 39.3739 36.8389C39.3746 36.8356 39.3754 36.8314 39.3768 36.8257C39.4685 36.7647 39.6078 36.6036 39.6253 36.4913C39.6273 36.4772 39.6266 36.469 39.6255 36.456C39.6253 36.4538 39.6251 36.4514 39.6249 36.4488C39.7105 36.5966 39.7015 37.066 39.6625 37.234C39.6575 37.2566 39.6464 37.2779 39.6357 37.2983C39.6346 37.3003 39.6337 37.3024 39.6327 37.3044C39.6318 37.3063 39.6309 37.3081 39.63 37.31L40.4606 37.31C40.4868 37.2642 40.4928 37.2317 40.4938 37.1792C40.508 36.4379 40.5027 35.6943 40.4974 34.9513C40.4946 34.5716 40.4919 34.1921 40.4918 33.8131C40.4918 33.7395 40.4946 33.6234 40.4978 33.489C40.5065 33.1253 40.5185 32.6277 40.4871 32.4782C40.4821 32.454 40.4717 32.4317 40.4606 32.4097H39.6058C39.6907 32.5472 39.6709 33.0493 39.636 33.2083C39.6286 33.2417 39.6142 33.2708 39.5984 33.301C39.6102 33.1772 39.4832 33.0274 39.3955 32.9239C39.3857 32.9123 39.3763 32.9013 39.3677 32.891C39.0404 32.496 38.5875 32.2885 38.0819 32.2416ZM38.9978 33.3732C38.6047 33.0779 38.1655 33.0464 37.6938 33.0935C37.2507 33.2104 36.928 33.3758 36.688 33.7874C36.4006 34.2809 36.3821 34.9948 36.5302 35.5395C36.6369 35.9319 36.8672 36.2805 37.2272 36.4818C37.5679 36.6724 37.955 36.7021 38.3361 36.6607C38.739 36.6014 39.0778 36.4407 39.3275 36.1099C39.6502 35.6821 39.7227 35.0736 39.6485 34.5527C39.5834 34.0928 39.3752 33.6566 38.9978 33.3732Z" fill="#232021"/>
<path d="M5.33296 35.627L7.11849 31.409C7.43738 30.6565 7.73961 29.8939 8.07864 29.1504C8.19417 29.8832 8.36167 30.6158 8.50412 31.3441C8.89261 33.3304 9.31574 35.3176 9.66206 37.3113C9.35899 37.3158 9.05487 37.3107 8.7517 37.3102C8.63701 36.843 8.56906 36.3529 8.48032 35.8796L7.95022 33.0387C7.89042 32.701 7.8247 32.3645 7.75308 32.0292C7.43996 32.638 7.19484 33.3052 6.92474 33.9358L5.33159 37.6225L3.71257 33.8802C3.44593 33.2632 3.20171 32.6168 2.89584 32.0191L1.91682 37.3116L1 37.3085L2.06871 31.8215C2.23853 30.9496 2.37893 30.0563 2.58854 29.1937C2.69946 29.2998 5.0498 34.9571 5.33296 35.627Z" fill="#53B64A"/>
<path fill-rule="evenodd" clip-rule="evenodd" d="M46.4656 29.0063C46.2609 28.9989 46.0454 28.9911 45.8593 29.0266C45.9138 29.1995 45.8978 30.212 45.8888 30.7849C45.8864 30.936 45.8845 31.0565 45.8845 31.1229C45.8846 31.3377 45.8883 31.5547 45.8921 31.7724C45.9001 32.2347 45.9082 32.7004 45.8814 33.1551C45.8784 33.2032 45.867 33.245 45.8445 33.2876C45.8421 33.2921 45.8395 33.2965 45.8368 33.3009L45.8358 33.3027C45.8489 33.1954 45.7487 33.0685 45.682 32.9839C45.6786 32.9795 45.6752 32.9752 45.6719 32.9711C45.3359 32.5446 44.895 32.3041 44.3542 32.2458C43.7633 32.1822 43.1532 32.316 42.6835 32.6925C42.148 33.1219 41.8767 33.7692 41.8069 34.4381C41.729 35.1835 41.8338 36.0741 42.3253 36.671C42.3703 36.7256 42.4552 36.8042 42.5412 36.8839C42.6522 36.9866 42.7648 37.091 42.7957 37.1473C43.4252 37.4613 44.0651 37.6548 44.7648 37.4255C45.1703 37.2926 45.6444 36.9407 45.8412 36.5479C45.861 36.5084 45.8677 36.4836 45.8643 36.4399C45.9251 36.5744 45.9466 37.1054 45.8956 37.2472C45.8888 37.2654 45.8808 37.2818 45.8717 37.2989L45.8657 37.3106L46.6939 37.3109C46.7121 37.2809 46.7235 37.2528 46.7258 37.2173C46.7379 37.0567 46.7349 36.8905 46.7319 36.7262C46.7305 36.6533 46.7292 36.5807 46.7292 36.5092L46.7295 35.1524V30.8343C46.7295 30.7506 46.7319 30.6105 46.7348 30.4443C46.7435 29.9435 46.7562 29.2063 46.7191 29.0659C46.7137 29.0456 46.7047 29.03 46.6939 29.0123C46.6209 29.012 46.544 29.0092 46.4656 29.0063ZM45.2434 33.3814C44.8388 33.074 44.3876 33.0476 43.9014 33.0932C43.4804 33.2026 43.1507 33.382 42.9224 33.7686C42.632 34.2599 42.6199 34.9757 42.7683 35.5202C42.8815 35.9349 43.1205 36.308 43.5026 36.5199C43.7816 36.6748 44.2479 36.7593 44.5669 36.6806C44.5796 36.6774 44.5836 36.6752 44.5921 36.6706C44.5935 36.6698 44.595 36.669 44.5967 36.6681C44.9778 36.6164 45.3075 36.4348 45.5435 36.128C45.8742 35.6982 45.9572 35.087 45.886 34.559C45.8235 34.0976 45.6197 33.6674 45.2434 33.3814Z" fill="#232021"/>
<path d="M10.723 10C10.821 10.0295 10.9888 10.3129 11.0569 10.4057C11.5663 11.1038 12.1095 11.7747 12.6863 12.4182C14.136 14.0313 15.7822 15.6904 17.6551 16.8094C19.2289 17.7497 21.6514 18.6909 23.5006 18.2196C23.562 18.2039 23.6229 18.187 23.6835 18.1688C23.7441 18.1506 23.8043 18.1311 23.864 18.1103C23.9238 18.0895 23.9831 18.0675 24.0419 18.0441C24.1007 18.0208 24.159 17.9962 24.2167 17.9704C24.2745 17.9446 24.3317 17.9176 24.3883 17.8893C24.4449 17.861 24.5009 17.8316 24.5562 17.8009C24.6116 17.7703 24.6663 17.7384 24.7203 17.7054C24.7742 17.6724 24.8275 17.6383 24.88 17.603C24.9326 17.5677 24.9843 17.5314 25.0353 17.4939C25.0863 17.4564 25.1364 17.4178 25.1857 17.3782C25.2351 17.3386 25.2835 17.2979 25.3311 17.2562C25.3787 17.2145 25.4254 17.1718 25.4711 17.1281C25.5169 17.0844 25.5617 17.0397 25.6055 16.9941C25.6494 16.9485 25.6923 16.9019 25.7341 16.8545C25.776 16.807 25.8168 16.7587 25.8566 16.7095C25.8964 16.6603 25.9351 16.6103 25.9728 16.5594C26.2101 16.2411 26.4049 15.8919 26.607 15.5507C26.6522 15.6758 26.6782 15.8154 26.7032 15.946C26.9706 17.3438 26.7079 18.7219 25.9093 19.9002C25.7973 20.056 25.6765 20.2046 25.5469 20.3461C24.6672 21.2978 23.4606 21.8035 22.1733 21.8539C21.3863 21.8848 20.5746 21.8195 19.795 21.7148C16.5142 21.2741 13.585 19.8068 11.1604 17.5675C10.6323 17.0797 9.50615 15.995 9.19612 15.3855C9.06923 15.1362 9.01235 14.8491 9.00205 14.5709C8.98651 14.1496 9.06183 13.7312 9.14223 13.3194C9.39702 12.0143 9.81274 10.9854 10.723 10Z" fill="#53B64A"/>
<path d="M26.4008 11.1256C26.6479 11.0905 26.9195 11.1046 27.1687 11.1095C27.4342 11.1149 27.6993 11.1268 27.9642 11.1451C28.2291 11.1634 28.4934 11.1881 28.757 11.2192C29.0207 11.2504 29.2835 11.2879 29.5453 11.3318C29.8072 11.3757 30.0678 11.4259 30.3272 11.4824C33.3812 12.1567 36.0913 13.7744 38.2836 15.9868C38.6897 16.3968 39.2125 16.8875 39.5185 17.3747C39.9818 18.1125 39.7781 19.3487 39.5918 20.1513C39.5661 20.2614 39.5375 20.3707 39.5059 20.4793C39.4744 20.5878 39.4401 20.6955 39.403 20.8023C39.3659 20.9091 39.3261 21.0148 39.2836 21.1195C39.2409 21.2242 39.1956 21.3277 39.1475 21.4301C39.0995 21.5324 39.0488 21.6334 38.9957 21.7331C38.9422 21.8328 38.8864 21.931 38.828 22.0278C38.7695 22.1245 38.7086 22.2197 38.6453 22.3133C38.5818 22.4068 38.5159 22.4987 38.4477 22.5888C38.3464 22.7245 38.2212 22.9097 38.0764 23.0001C38.0761 22.9947 38.0761 22.9892 38.0752 22.9839C38.0414 22.8255 35.9919 20.3022 35.71 20.0945C35.6904 19.9873 35.4195 19.7465 35.3394 19.6624C35.106 19.4131 34.867 19.1693 34.6222 18.9311C34.3775 18.6928 34.1274 18.4604 33.872 18.2337C33.6165 18.007 33.3559 17.7863 33.0903 17.5717C32.8246 17.3571 32.5541 17.1487 32.2788 16.9466C30.5065 15.6559 27.9777 14.4524 25.7414 14.8086C24.1321 15.0649 23.1251 16.0824 22.2092 17.3498C22.1257 17.0709 22.0767 16.7711 22.0463 16.4817C21.9088 15.1764 22.2659 13.8543 23.099 12.8323C23.9303 11.8126 25.1057 11.2552 26.4008 11.1256Z" fill="#232021"/>
</svg>
