<svg width="181" height="32" viewBox="0 0 181 32" fill="none" xmlns="http://www.w3.org/2000/svg">
<path d="M4.04267 0.785645C4.27067 0.8542 4.66093 1.51346 4.81939 1.72942C6.00456 3.35358 7.26813 4.91424 8.61009 6.41142C11.9826 10.1642 15.8124 14.0239 20.1695 16.6272C23.8309 18.8147 29.4666 21.0043 33.7686 19.9077C33.9113 19.8714 34.0531 19.8321 34.194 19.7897C34.335 19.7473 34.475 19.7019 34.614 19.6535C34.753 19.6052 34.8909 19.5539 35.0278 19.4996C35.1646 19.4454 35.3002 19.3882 35.4346 19.3282C35.569 19.2681 35.702 19.2052 35.8337 19.1394C35.9654 19.0736 36.0957 19.0051 36.2244 18.9338C36.3532 18.8625 36.4804 18.7884 36.606 18.7116C36.7316 18.6349 36.8555 18.5555 36.9777 18.4734C37.0999 18.3913 37.2203 18.3067 37.3388 18.2195C37.4574 18.1323 37.5741 18.0426 37.6888 17.9504C37.8036 17.8582 37.9163 17.7635 38.027 17.6665C38.1377 17.5695 38.2463 17.4702 38.3528 17.3685C38.4593 17.2668 38.5635 17.1629 38.6655 17.0568C38.7675 16.9507 38.8672 16.8424 38.9646 16.732C39.062 16.6216 39.157 16.5092 39.2496 16.3948C39.3422 16.2803 39.4323 16.1639 39.5199 16.0456C40.0719 15.305 40.5252 14.4926 40.9952 13.6988C41.1006 13.9899 41.1609 14.3147 41.2191 14.6185C41.8411 17.8703 41.2301 21.0764 39.3723 23.8177C39.1116 24.1799 38.8305 24.5257 38.5292 24.8549C36.4826 27.069 33.6755 28.2455 30.6808 28.3628C28.8497 28.4346 26.9615 28.2828 25.1479 28.0391C17.5152 27.0138 10.7008 23.6003 5.06026 18.3907C3.83167 17.256 1.2117 14.7324 0.490445 13.3146C0.195237 12.7345 0.0629022 12.0667 0.0389502 11.4194C0.0027977 10.4393 0.178021 9.46594 0.365071 8.50801C0.957807 5.47175 1.92494 3.07818 4.04267 0.785645Z" fill="#53B64A"/>
<path d="M40.5151 3.40416C41.09 3.32264 41.7217 3.35535 42.3016 3.36674C42.9191 3.37937 43.536 3.40697 44.1522 3.44956C44.7684 3.49214 45.3832 3.54964 45.9966 3.62207C46.61 3.6945 47.2213 3.78177 47.8305 3.88388C48.4397 3.98599 49.046 4.10282 49.6495 4.23438C56.7543 5.8031 63.0592 9.56644 68.1594 14.7135C69.1041 15.6672 70.3204 16.8088 71.0322 17.9421C72.11 19.6586 71.6362 22.5345 71.2028 24.4018C71.143 24.6579 71.0764 24.9122 71.003 25.1647C70.9297 25.4173 70.8498 25.6678 70.7635 25.9162C70.6772 26.1647 70.5846 26.4107 70.4858 26.6542C70.3865 26.8978 70.281 27.1386 70.1692 27.3767C70.0574 27.6148 69.9396 27.8497 69.8159 28.0816C69.6916 28.3135 69.5616 28.542 69.4259 28.7672C69.2897 28.9923 69.148 29.2137 69.0008 29.4314C68.8531 29.6491 68.6999 29.8627 68.5412 30.0725C68.3054 30.388 68.0142 30.8189 67.6774 31.0291C67.6767 31.0166 67.6767 31.0038 67.6744 30.9916C67.5958 30.6231 62.8279 24.7527 62.1722 24.2696C62.1265 24.0202 61.4963 23.46 61.3099 23.2644C60.767 22.6844 60.2109 22.1173 59.6415 21.563C59.0722 21.0087 58.4903 20.4679 57.896 19.9406C57.3017 19.4132 56.6955 18.8998 56.0775 18.4005C55.4595 17.9012 54.8302 17.4165 54.1898 16.9463C50.0665 13.9436 44.1836 11.1437 38.9811 11.9723C35.2371 12.5687 32.8944 14.9358 30.7638 17.8843C30.5694 17.2353 30.4555 16.538 30.3846 15.8648C30.0649 12.8281 30.8956 9.75222 32.8338 7.37476C34.7677 5.00256 37.502 3.7058 40.5151 3.40416Z" fill="#232021"/>
<path d="M125.278 10.8133C125.918 10.8221 126.557 10.8191 127.196 10.8042L127.197 15.2167L129.196 15.2166L129.198 16.7664L127.195 16.7666L127.192 26.1561C126.553 26.1421 125.913 26.1457 125.274 26.141C125.201 23.023 125.252 19.8834 125.276 16.7637L123.267 16.764C123.275 16.2498 123.266 15.7343 123.264 15.22L125.277 15.2114C125.236 13.7501 125.254 12.2751 125.278 10.8133Z" fill="#53B64A"/>
<path d="M131.481 8.66853L133.576 8.66846L133.575 24.1393L140.18 24.1373C140.175 24.8049 140.176 25.4724 140.183 26.14L131.478 26.1422L131.481 8.66853Z" fill="#232021"/>
<path d="M103.745 14.8265C103.869 14.8026 104.002 14.8069 104.129 14.804C105.572 14.7716 106.915 15.0867 107.988 16.1283C109.371 17.4697 109.596 19.1611 109.613 20.9814L100.961 20.9874C100.963 21.2454 100.977 21.5028 101.005 21.7593C101.114 22.7455 101.572 23.6921 102.362 24.3097C103.133 24.9133 104.122 25.1286 105.085 24.9973C106.219 24.8427 107.035 24.1535 107.709 23.275C107.848 23.0748 107.976 22.8641 108.108 22.6591C108.601 22.964 109.076 23.2968 109.554 23.6242C109.384 23.9179 109.197 24.1999 108.992 24.4702C108.096 25.6426 106.818 26.3627 105.359 26.5551C103.855 26.7536 102.268 26.4776 101.05 25.5281C99.814 24.564 99.1263 23.1342 98.9458 21.5969C98.7462 19.8958 99.0579 18.1198 100.142 16.7555C101.063 15.5965 102.287 14.9891 103.745 14.8265Z" fill="#53B64A"/>
<path d="M103.84 16.4705C103.854 16.4687 103.868 16.4663 103.882 16.4651C104.805 16.3845 105.79 16.5456 106.524 17.144C107.23 17.7197 107.51 18.5564 107.591 19.4367L104.814 19.4386L100.958 19.4412C101.059 18.8103 101.228 18.228 101.614 17.7051C102.17 16.9509 102.935 16.6041 103.84 16.4705Z" fill="#FEFEFE"/>
<path d="M116.291 14.8251C116.516 14.7951 116.751 14.8015 116.976 14.8004C118.339 14.7936 119.645 15.2142 120.623 16.1995C121.916 17.5001 122.187 19.2378 122.188 20.9878C119.307 20.9437 116.418 20.9828 113.536 20.9827C113.537 21.2696 113.54 21.5545 113.577 21.8394C113.705 22.8197 114.176 23.7477 114.973 24.3485C115.752 24.9346 116.744 25.1268 117.699 24.9832C118.864 24.8079 119.667 24.0903 120.344 23.1777L120.682 22.6503C121.162 22.9679 121.647 23.2797 122.112 23.6193C121.929 23.9366 121.735 24.2413 121.508 24.5298C120.606 25.6794 119.343 26.3847 117.892 26.5562C116.355 26.7377 114.783 26.4663 113.548 25.4796C112.351 24.5237 111.682 23.0847 111.508 21.5836C111.313 19.8928 111.618 18.1056 112.703 16.7504C113.615 15.6107 114.853 14.9844 116.291 14.8251Z" fill="#53B64A"/>
<path d="M116.409 16.4707C116.416 16.47 116.422 16.4689 116.429 16.4684C117.387 16.4011 118.353 16.5258 119.113 17.1656C119.805 17.7477 120.072 18.5667 120.15 19.4382L117.38 19.4388L113.518 19.4392C113.63 18.8064 113.793 18.2058 114.188 17.6836C114.746 16.9456 115.514 16.602 116.409 16.4707Z" fill="#FEFEFE"/>
<path d="M146.569 14.832C148.167 14.7277 149.683 15.1822 150.919 16.2092C150.956 16.2395 150.993 16.2702 151.029 16.3014C151.065 16.3327 151.1 16.3643 151.136 16.3964C151.171 16.4285 151.206 16.461 151.24 16.494C151.275 16.527 151.309 16.5604 151.343 16.5942C151.376 16.628 151.409 16.6622 151.442 16.6969C151.475 16.7315 151.507 16.7666 151.539 16.802C151.571 16.8375 151.603 16.8733 151.634 16.9096C151.665 16.9458 151.695 16.9824 151.725 17.0195C151.755 17.0564 151.785 17.0938 151.814 17.1315C151.843 17.1693 151.872 17.2074 151.9 17.2458C151.928 17.2843 151.956 17.3231 151.983 17.3623C152.011 17.4014 152.038 17.4409 152.064 17.4807C152.09 17.5205 152.116 17.5606 152.141 17.6011C152.167 17.6416 152.191 17.6823 152.215 17.7234C152.24 17.7645 152.263 17.8059 152.286 17.8475C152.31 17.8892 152.332 17.9312 152.354 17.9734C152.377 18.0156 152.399 18.0581 152.42 18.101C152.44 18.1437 152.461 18.1868 152.481 18.2301C152.501 18.2733 152.521 18.3169 152.54 18.3606C152.559 18.4044 152.577 18.4484 152.595 18.4927C152.613 18.5369 152.63 18.5814 152.647 18.626C152.664 18.6707 152.68 18.7156 152.696 18.7606C152.711 18.8057 152.726 18.851 152.741 18.8964C152.755 18.9419 152.769 18.9875 152.783 19.0333C152.796 19.0791 152.808 19.1251 152.821 19.1712C152.833 19.2173 152.844 19.2635 152.856 19.3099C152.867 19.3563 152.877 19.4029 152.887 19.4495C152.897 19.4962 152.906 19.543 152.915 19.5899C152.923 19.6368 152.931 19.6838 152.939 19.7309C152.947 19.778 152.954 19.8252 152.96 19.8724C152.966 19.9197 152.972 19.9671 152.978 20.0145C152.983 20.0619 152.987 20.1094 152.991 20.1569C153.131 21.7045 152.687 23.2323 151.681 24.4275C150.608 25.7032 149.142 26.45 147.487 26.5906C146.021 26.6621 144.666 26.3122 143.484 25.4211C143.407 25.3636 143.331 25.3042 143.257 25.2429C143.183 25.1817 143.111 25.1187 143.04 25.0538C142.969 24.989 142.899 24.9225 142.832 24.8543C142.764 24.786 142.698 24.7162 142.634 24.6447C142.569 24.5733 142.507 24.5003 142.446 24.4257C142.385 24.3512 142.327 24.2752 142.27 24.1978C142.213 24.1203 142.158 24.0415 142.105 23.9614C142.051 23.8813 142 23.7999 141.951 23.7172C141.902 23.6346 141.855 23.5508 141.81 23.4659C141.765 23.3809 141.722 23.2949 141.682 23.2078C141.641 23.1208 141.602 23.0328 141.566 22.9438C141.529 22.8549 141.495 22.7651 141.463 22.6744C141.431 22.5838 141.401 22.4924 141.374 22.4003C141.346 22.3082 141.321 22.2155 141.298 22.1221C141.275 22.0288 141.254 21.935 141.236 21.8406C141.218 21.7463 141.202 21.6515 141.188 21.5563C140.976 20.0108 141.351 18.3908 142.305 17.1473C143.384 15.7422 144.839 15.0549 146.569 14.832Z" fill="#232021"/>
<path d="M146.369 16.6346C147.447 16.518 148.441 16.6689 149.333 17.3278C149.387 17.3681 149.44 17.4098 149.492 17.4527C149.545 17.4956 149.596 17.5398 149.646 17.5852C149.696 17.6307 149.745 17.6774 149.792 17.7252C149.84 17.7731 149.887 17.8221 149.932 17.8723C149.977 17.9224 150.021 17.9737 150.064 18.026C150.107 18.0784 150.148 18.1317 150.188 18.1861C150.229 18.2405 150.267 18.2958 150.305 18.3522C150.342 18.4084 150.378 18.4656 150.413 18.5236C150.447 18.5817 150.48 18.6406 150.512 18.7004C150.544 18.76 150.574 18.8205 150.603 18.8817C150.631 18.9429 150.659 19.0048 150.684 19.0673C150.71 19.1299 150.734 19.193 150.757 19.2567C150.779 19.3204 150.8 19.3847 150.819 19.4495C150.839 19.5142 150.856 19.5794 150.873 19.645C150.889 19.7107 150.903 19.7767 150.916 19.843C150.929 19.9094 150.94 19.976 150.95 20.0429C151.114 21.1601 150.863 22.3351 150.184 23.245C149.546 24.1012 148.649 24.6404 147.593 24.7893C147.543 24.7967 147.493 24.803 147.442 24.8083C147.391 24.8137 147.341 24.818 147.29 24.8213C147.24 24.8246 147.189 24.8268 147.138 24.8281C147.087 24.8293 147.036 24.8296 146.986 24.8288C146.935 24.828 146.884 24.8261 146.833 24.8233C146.783 24.8205 146.732 24.8166 146.682 24.8117C146.631 24.8068 146.581 24.8009 146.53 24.794C146.48 24.7871 146.43 24.7792 146.38 24.7702C146.33 24.7613 146.28 24.7513 146.23 24.7404C146.181 24.7294 146.131 24.7175 146.082 24.7046C146.033 24.6916 145.984 24.6777 145.936 24.6628C145.887 24.6479 145.839 24.632 145.791 24.6152C145.743 24.5984 145.696 24.5805 145.648 24.5618C145.601 24.543 145.554 24.5233 145.508 24.5026C145.462 24.482 145.416 24.4604 145.37 24.4379C145.325 24.4154 145.28 24.392 145.235 24.3677C145.177 24.335 145.119 24.3008 145.063 24.2654C145.006 24.2298 144.95 24.193 144.896 24.1547C144.841 24.1165 144.787 24.077 144.734 24.0361C144.681 23.9953 144.629 23.9532 144.578 23.9098C144.528 23.8664 144.478 23.8218 144.429 23.776C144.38 23.7302 144.333 23.6832 144.287 23.6351C144.24 23.587 144.195 23.5378 144.151 23.4875C144.107 23.4371 144.064 23.3857 144.023 23.3333C143.981 23.2809 143.941 23.2276 143.902 23.1732C143.864 23.1188 143.826 23.0635 143.79 23.0073C143.754 22.9511 143.719 22.8941 143.686 22.8362C143.652 22.7783 143.62 22.7196 143.59 22.6601C143.559 22.6007 143.53 22.5406 143.503 22.4797C143.475 22.4188 143.449 22.3573 143.424 22.2952C143.4 22.233 143.377 22.1703 143.355 22.107C143.333 22.0437 143.313 21.98 143.295 21.9158C142.984 20.8304 143.113 19.5787 143.67 18.5959C144.287 17.5087 145.2 16.9574 146.369 16.6346Z" fill="#FEFEFE"/>
<path d="M159.707 14.8321C160.042 14.809 160.388 14.8096 160.724 14.8406C161.851 14.9452 162.861 15.4078 163.59 16.2884C163.781 16.517 164.134 16.8956 164.105 17.2025C164.14 17.1353 164.172 17.0704 164.189 16.9959C164.266 16.6413 164.311 15.5221 164.121 15.2156H166.027C166.052 15.2646 166.075 15.3142 166.086 15.3682C166.182 15.8247 166.096 17.7366 166.096 18.3442C166.097 20.8426 166.149 23.3515 166.101 25.8487C166.099 25.9657 166.085 26.0382 166.027 26.1403L164.175 26.1402C164.18 26.1315 164.183 26.1228 164.188 26.1142C164.212 26.0687 164.236 26.0213 164.248 25.9709C164.334 25.5963 164.355 24.5499 164.164 24.2204C164.167 24.2593 164.17 24.2781 164.165 24.3149C164.126 24.5653 163.815 24.9246 163.611 25.0604C163.598 25.114 163.605 25.1064 163.578 25.1468C163.062 25.9166 161.911 26.4158 161.028 26.5533C159.737 26.7541 158.328 26.468 157.273 25.688C156.055 24.7881 155.37 23.3971 155.159 21.9216C154.906 20.1564 155.153 18.1215 156.26 16.6699C157.151 15.5004 158.299 15.0219 159.707 14.8321Z" fill="#232021"/>
<path d="M159.858 16.7384C160.909 16.6334 161.888 16.7036 162.765 17.362C163.606 17.9938 164.07 18.9664 164.215 19.9916C164.381 21.1528 164.219 22.5094 163.5 23.4632C162.943 24.2007 162.188 24.559 161.29 24.6913C160.44 24.7835 159.577 24.7172 158.817 24.2922C158.015 23.8436 157.501 23.0664 157.263 22.1915C156.933 20.9772 156.974 19.3857 157.615 18.2855C158.15 17.3678 158.87 16.9991 159.858 16.7384Z" fill="#FEFEFE"/>
<path d="M87.7117 22.3886L91.6924 12.9851C92.4033 11.3075 93.0771 9.60718 93.8329 7.94971C94.0905 9.58346 94.4639 11.2167 94.7815 12.8404C95.6476 17.2686 96.5909 21.6988 97.363 26.1437C96.6873 26.1538 96.0093 26.1424 95.3334 26.1412C95.0777 25.0996 94.9262 24.007 94.7284 22.9519L93.5466 16.6182C93.4133 15.8655 93.2668 15.1153 93.1071 14.3677C92.409 15.725 91.8626 17.2124 91.2604 18.6182L87.7086 26.8374L84.0992 18.4944C83.5047 17.1187 82.9603 15.6778 82.2784 14.3452L80.0957 26.1445L78.0518 26.1375L80.4343 13.9048C80.8129 11.9608 81.1259 9.96938 81.5933 8.04634C81.8405 8.28287 87.0804 20.8952 87.7117 22.3886Z" fill="#53B64A"/>
<path d="M178.062 7.67263C178.636 7.56298 179.335 7.63843 179.923 7.6406C179.946 7.68019 179.967 7.715 179.979 7.76013C180.089 8.17712 180.002 10.9544 180.002 11.7026V21.3295L180.001 24.3543C180.001 24.8734 180.033 25.416 179.994 25.9329C179.988 26.0121 179.963 26.0748 179.923 26.1416L178.076 26.141C178.08 26.1323 178.085 26.1235 178.089 26.1149C178.11 26.0768 178.128 26.0403 178.143 25.9996C178.256 25.6835 178.208 24.4997 178.073 24.1997C178.08 24.2972 178.065 24.3525 178.021 24.4405C177.583 25.3164 176.526 26.1008 175.622 26.3972C174.062 26.9082 172.635 26.4769 171.232 25.7768C171.11 25.5541 170.413 24.9937 170.183 24.715C169.087 23.3842 168.854 21.3988 169.027 19.7371C169.183 18.2458 169.788 16.8026 170.982 15.8453C172.029 15.0059 173.389 14.7076 174.706 14.8495C175.912 14.9795 176.895 15.5157 177.644 16.4664C177.792 16.6542 178.04 16.9542 178.009 17.2057C178.016 17.1944 178.023 17.1834 178.029 17.172C178.079 17.077 178.104 16.9839 178.111 16.8767C178.199 15.3858 178.119 13.8418 178.118 12.3462C178.118 11.6359 178.215 8.15976 178.062 7.67263Z" fill="#232021"/>
<path d="M173.696 16.7382C174.78 16.6366 175.786 16.6954 176.688 17.3808C177.527 18.0184 177.981 18.9775 178.12 20.0061C178.279 21.1834 178.094 22.5459 177.357 23.504C176.831 24.188 176.096 24.593 175.246 24.7082C175.219 24.7226 175.213 24.7278 175.18 24.736C174.469 24.9116 173.429 24.7232 172.807 24.3779C171.955 23.9054 171.422 23.0735 171.17 22.1489C170.839 20.9352 170.866 19.3392 171.513 18.2441C172.022 17.3822 172.757 16.9821 173.696 16.7382Z" fill="#FEFEFE"/>
</svg>
