<svg width="180" height="31" viewBox="0 0 180 31" fill="none" xmlns="http://www.w3.org/2000/svg">
<path d="M4.00849 0C4.23649 0.068555 4.62675 0.727818 4.78521 0.943775C5.97038 2.56793 7.23395 4.1286 8.57591 5.62577C11.9484 9.37857 15.7782 13.2383 20.1354 15.8416C23.7967 18.029 29.4324 20.2186 33.7345 19.1221C33.8771 19.0858 34.0189 19.0464 34.1598 19.004C34.3008 18.9617 34.4408 18.9163 34.5798 18.8679C34.7188 18.8195 34.8568 18.7682 34.9936 18.714C35.1304 18.6597 35.266 18.6025 35.4004 18.5425C35.5348 18.4824 35.6678 18.4195 35.7995 18.3537C35.9312 18.288 36.0615 18.2194 36.1902 18.1481C36.319 18.0768 36.4462 18.0028 36.5718 17.926C36.6974 17.8492 36.8213 17.7698 36.9435 17.6877C37.0657 17.6057 37.1861 17.5211 37.3047 17.4338C37.4233 17.3466 37.5399 17.2569 37.6547 17.1648C37.7694 17.0725 37.8821 16.9779 37.9928 16.8808C38.1036 16.7838 38.2122 16.6845 38.3186 16.5829C38.4251 16.4812 38.5293 16.3773 38.6313 16.2711C38.7333 16.165 38.8331 16.0568 38.9305 15.9463C39.0278 15.836 39.1228 15.7236 39.2154 15.6091C39.308 15.4947 39.3981 15.3783 39.4857 15.26C40.0377 14.5193 40.491 13.707 40.9611 12.9131C41.0664 13.2043 41.1267 13.5291 41.1849 13.8329C41.807 17.0847 41.1959 20.2908 39.3381 23.032C39.0774 23.3943 38.7963 23.74 38.495 24.0693C36.4484 26.2833 33.6413 27.4598 30.6466 27.5771C28.8155 27.6489 26.9273 27.4971 25.1137 27.2535C17.481 26.2282 10.6666 22.8147 5.02608 17.6051C3.79749 16.4704 1.17752 13.9467 0.456265 12.529C0.161057 11.9488 0.0287225 11.281 0.00477052 10.6337C-0.031382 9.65364 0.143841 8.68029 0.330891 7.72236C0.923628 4.68611 1.89076 2.29253 4.00849 0Z" fill="#FEFEFE"/>
<path d="M40.481 2.61852C41.0558 2.53699 41.6875 2.56971 42.2674 2.58109C42.885 2.59372 43.5018 2.62133 44.118 2.66391C44.7342 2.70649 45.349 2.764 45.9624 2.83643C46.5759 2.90886 47.1872 2.99613 47.7963 3.09824C48.4055 3.20035 49.0118 3.31718 49.6153 3.44873C56.7201 5.01746 63.025 8.7808 68.1253 13.9279C69.0699 14.8815 70.2862 16.0232 70.998 17.1565C72.0758 18.873 71.602 21.7488 71.1687 23.6161C71.1088 23.8722 71.0422 24.1265 70.9688 24.3791C70.8955 24.6317 70.8156 24.8822 70.7293 25.1306C70.643 25.379 70.5504 25.625 70.4516 25.8686C70.3523 26.1121 70.2468 26.353 70.135 26.591C70.0232 26.8291 69.9054 27.0641 69.7817 27.296C69.6574 27.5279 69.5275 27.7564 69.3917 27.9815C69.2555 28.2066 69.1138 28.428 68.9666 28.6457C68.8189 28.8634 68.6657 29.0771 68.507 29.2868C68.2712 29.6024 67.9801 30.0332 67.6432 30.2435C67.6425 30.231 67.6425 30.2182 67.6402 30.2059C67.5616 29.8374 62.7937 23.9671 62.138 23.4839C62.0924 23.2345 61.4621 22.6744 61.2758 22.4788C60.7328 21.8988 60.1767 21.3317 59.6074 20.7774C59.038 20.2231 58.4562 19.6823 57.8619 19.1549C57.2675 18.6275 56.6614 18.1142 56.0433 17.6149C55.4253 17.1156 54.7961 16.6308 54.1556 16.1606C50.0323 13.1579 44.1494 10.358 38.9469 11.1867C35.2029 11.7831 32.8603 14.1502 30.7296 17.0986C30.5352 16.4497 30.4213 15.7523 30.3505 15.0792C30.0307 12.0425 30.8614 8.96658 32.7996 6.58912C34.7335 4.21692 37.4679 2.92016 40.481 2.61852Z" fill="#FEFEFE"/>
<path d="M125.245 10.0291C125.884 10.0379 126.523 10.0349 127.162 10.02L127.164 14.4319L129.162 14.4317L129.164 15.9813L127.161 15.9815L127.159 25.3696C126.52 25.3556 125.88 25.3591 125.241 25.3545C125.168 22.2369 125.219 19.0978 125.243 15.9786L123.234 15.9789C123.242 15.4648 123.233 14.9494 123.231 14.4351L125.244 14.4266C125.202 12.9655 125.221 11.4907 125.245 10.0291Z" fill="#FEFEFE"/>
<path d="M131.449 7.88582L133.544 7.88574L133.543 23.3541L140.148 23.3522C140.142 24.0196 140.143 24.6871 140.151 25.3546L131.445 25.3567L131.449 7.88582Z" fill="#FEFEFE"/>
<path fill-rule="evenodd" clip-rule="evenodd" d="M104.019 14.0215C103.917 14.0226 103.813 14.0238 103.714 14.0428C102.256 14.2054 101.032 14.8127 100.111 15.9715C99.0272 17.3356 98.7154 19.1113 98.915 20.8122C99.0955 22.3492 99.7832 23.7788 101.02 24.7428C102.237 25.6921 103.824 25.9681 105.328 25.7696C106.787 25.5772 108.065 24.8572 108.961 23.685C109.166 23.4148 109.353 23.1328 109.523 22.8392C109.449 22.788 109.374 22.7367 109.299 22.6854C108.896 22.4085 108.493 22.1314 108.077 21.8742C108.035 21.9394 107.993 22.0053 107.951 22.0712C107.862 22.2122 107.773 22.3535 107.678 22.49C107.004 23.3683 106.188 24.0575 105.054 24.212C104.091 24.3433 103.102 24.128 102.331 23.5245C101.542 22.907 101.083 21.9606 100.974 20.9746C100.946 20.718 100.932 20.4608 100.93 20.2028L109.582 20.1967C109.565 18.3767 109.34 16.6856 107.957 15.3444C106.884 14.303 105.541 13.9879 104.098 14.0203C104.072 14.0209 104.046 14.0212 104.019 14.0215ZM103.821 15.6853C103.816 15.686 103.812 15.6866 103.808 15.6872C102.902 15.8208 102.137 16.1675 101.581 16.9216C101.196 17.4444 101.027 18.0266 100.925 18.6575L104.781 18.6549L107.558 18.6529C107.477 17.7727 107.197 16.9362 106.491 16.3605C105.757 15.7623 104.772 15.6012 103.849 15.6818C103.84 15.6827 103.83 15.684 103.821 15.6853Z" fill="#FEFEFE"/>
<path fill-rule="evenodd" clip-rule="evenodd" d="M116.828 14.0168C116.639 14.0167 116.445 14.0166 116.26 14.0414C114.821 14.2006 113.583 14.8269 112.671 15.9664C111.586 17.3214 111.281 19.1083 111.477 20.7988C111.65 22.2997 112.319 23.7385 113.516 24.6942C114.751 25.6808 116.324 25.9522 117.86 25.7706C119.311 25.5992 120.574 24.894 121.476 23.7446C121.703 23.4561 121.897 23.1515 122.08 22.8343C121.703 22.5586 121.312 22.3012 120.921 22.0442C120.83 21.9847 120.74 21.9251 120.65 21.8653L120.312 22.3927C119.635 23.3052 118.832 24.0226 117.667 24.1979C116.712 24.3415 115.72 24.1493 114.942 23.5633C114.144 22.9626 113.673 22.0348 113.545 21.0546C113.508 20.7697 113.505 20.4849 113.504 20.1981C114.427 20.1981 115.35 20.1941 116.273 20.1901C118.235 20.1817 120.197 20.1732 122.156 20.2032C122.155 18.4535 121.884 16.7159 120.592 15.4156C119.613 14.4305 118.307 14.0099 116.945 14.0167C116.906 14.0169 116.867 14.0168 116.828 14.0168ZM116.385 15.6857C116.382 15.686 116.38 15.6863 116.378 15.6866C115.483 15.8178 114.715 16.1614 114.157 16.8993C113.762 17.4213 113.599 18.0218 113.486 18.6546L117.348 18.6541L120.118 18.6535C120.041 17.7822 119.774 16.9633 119.082 16.3814C118.322 15.7417 117.356 15.6169 116.397 15.6843C116.393 15.6846 116.389 15.6851 116.385 15.6857Z" fill="#FEFEFE"/>
<path fill-rule="evenodd" clip-rule="evenodd" d="M150.886 15.4248C149.65 14.398 148.134 13.9435 146.536 14.0478C144.806 14.2707 143.35 14.9579 142.272 16.3628C141.318 17.606 140.943 19.2258 141.155 20.7711C141.168 20.8662 141.184 20.961 141.203 21.0553C141.221 21.1497 141.242 21.2435 141.265 21.3368C141.288 21.4302 141.313 21.5229 141.341 21.615C141.368 21.707 141.398 21.7984 141.43 21.889C141.462 21.9796 141.496 22.0694 141.533 22.1584C141.569 22.2473 141.608 22.3353 141.648 22.4223C141.689 22.5094 141.732 22.5954 141.777 22.6804C141.822 22.7653 141.869 22.8491 141.918 22.9317C141.967 23.0143 142.018 23.0957 142.071 23.1758C142.124 23.2559 142.179 23.3347 142.236 23.4122C142.293 23.4896 142.352 23.5655 142.413 23.64C142.474 23.7146 142.536 23.7876 142.6 23.859C142.665 23.9305 142.731 24.0003 142.798 24.0686C142.866 24.1368 142.935 24.2033 143.006 24.2681C143.077 24.3329 143.15 24.3959 143.224 24.4571C143.298 24.5184 143.373 24.5778 143.45 24.6353C144.633 25.5263 145.988 25.876 147.453 25.8046C149.108 25.664 150.575 24.9173 151.648 23.6418C152.654 22.4468 153.097 20.9192 152.958 19.3719C152.954 19.3244 152.949 19.2769 152.944 19.2295C152.939 19.1821 152.933 19.1348 152.926 19.0875C152.92 19.0402 152.913 18.993 152.906 18.9459C152.898 18.8989 152.89 18.8519 152.882 18.805C152.873 18.7581 152.863 18.7113 152.854 18.6646C152.844 18.618 152.833 18.5715 152.822 18.5251C152.811 18.4787 152.799 18.4324 152.787 18.3863C152.775 18.3402 152.762 18.2943 152.749 18.2485C152.736 18.2027 152.722 18.157 152.707 18.1116C152.693 18.0662 152.678 18.0209 152.662 17.9758C152.646 17.9308 152.63 17.8859 152.614 17.8413C152.597 17.7966 152.579 17.7522 152.561 17.7079C152.544 17.6637 152.526 17.6197 152.507 17.5759C152.488 17.5321 152.468 17.4886 152.447 17.4454C152.427 17.4021 152.407 17.359 152.386 17.3163C152.365 17.2735 152.343 17.231 152.321 17.1887C152.299 17.1465 152.276 17.1046 152.253 17.0629C152.23 17.0212 152.206 16.9798 152.182 16.9388C152.158 16.8977 152.133 16.857 152.108 16.8165C152.082 16.776 152.056 16.7359 152.031 16.6961C152.004 16.6563 151.977 16.6168 151.95 16.5777C151.923 16.5385 151.895 16.4997 151.867 16.4612C151.839 16.4228 151.81 16.3847 151.781 16.347C151.752 16.3092 151.722 16.2719 151.692 16.2349C151.662 16.1979 151.631 16.1613 151.6 16.1251C151.569 16.0888 151.538 16.053 151.506 16.0175C151.474 15.9821 151.442 15.9471 151.409 15.9124C151.376 15.8778 151.343 15.8435 151.309 15.8097C151.276 15.7759 151.241 15.7425 151.207 15.7096C151.172 15.6766 151.138 15.6441 151.102 15.612C151.067 15.5799 151.031 15.5482 150.995 15.517C150.959 15.4858 150.923 15.4551 150.886 15.4248ZM149.299 16.545C148.407 15.8862 147.413 15.7353 146.336 15.8519C145.166 16.1746 144.253 16.7258 143.636 17.8128C143.079 18.7955 142.95 20.047 143.261 21.1322C143.28 21.1964 143.3 21.2602 143.321 21.3234C143.343 21.3867 143.366 21.4494 143.391 21.5116C143.415 21.5737 143.441 21.6352 143.469 21.696C143.496 21.7569 143.525 21.8171 143.556 21.8765C143.586 21.936 143.618 21.9946 143.652 22.0525C143.685 22.1104 143.72 22.1674 143.756 22.2236C143.792 22.2798 143.83 22.335 143.869 22.3894C143.908 22.4438 143.948 22.4972 143.989 22.5496C144.031 22.602 144.073 22.6533 144.117 22.7037C144.161 22.754 144.207 22.8032 144.253 22.8513C144.299 22.8994 144.347 22.9464 144.395 22.9922C144.444 23.038 144.494 23.0826 144.545 23.1259C144.596 23.1693 144.647 23.2114 144.7 23.2522C144.753 23.2931 144.807 23.3326 144.862 23.3709C144.917 23.4091 144.972 23.4459 145.029 23.4815C145.086 23.5169 145.143 23.551 145.201 23.5838C145.246 23.6081 145.291 23.6315 145.336 23.654C145.382 23.6765 145.428 23.698 145.474 23.7187C145.521 23.7394 145.567 23.7591 145.615 23.7778C145.662 23.7966 145.709 23.8144 145.757 23.8313C145.805 23.8481 145.853 23.8639 145.902 23.8789C145.951 23.8937 145.999 23.9076 146.049 23.9206C146.098 23.9335 146.147 23.9455 146.197 23.9564C146.246 23.9674 146.296 23.9773 146.346 23.9862C146.396 23.9952 146.446 24.0031 146.496 24.01C146.547 24.0169 146.597 24.0228 146.648 24.0277C146.698 24.0326 146.749 24.0365 146.8 24.0393C146.85 24.0422 146.901 24.044 146.952 24.0448C147.003 24.0456 147.053 24.0453 147.104 24.0441C147.155 24.0429 147.206 24.0406 147.256 24.0373C147.307 24.034 147.358 24.0297 147.408 24.0243C147.459 24.019 147.509 24.0127 147.559 24.0053C148.615 23.8565 149.512 23.3173 150.15 22.4613C150.829 21.5515 151.08 20.3767 150.916 19.2597C150.906 19.1928 150.895 19.1262 150.882 19.0598C150.869 18.9935 150.855 18.9275 150.839 18.8618C150.823 18.7962 150.805 18.7311 150.785 18.6663C150.766 18.6015 150.745 18.5373 150.723 18.4736C150.7 18.4099 150.676 18.3468 150.65 18.2842C150.625 18.2217 150.598 18.1598 150.569 18.0986C150.54 18.0374 150.51 17.977 150.478 17.9173C150.447 17.8576 150.413 17.7987 150.379 17.7406C150.344 17.6826 150.308 17.6254 150.271 17.5692C150.233 17.5128 150.195 17.4575 150.155 17.4032C150.114 17.3488 150.073 17.2954 150.03 17.2431C149.987 17.1908 149.943 17.1395 149.898 17.0894C149.853 17.0392 149.806 16.9902 149.759 16.9423C149.711 16.8945 149.662 16.8478 149.612 16.8024C149.562 16.7569 149.511 16.7127 149.459 16.6698C149.406 16.6269 149.353 16.5853 149.299 16.545Z" fill="#FEFEFE"/>
<path fill-rule="evenodd" clip-rule="evenodd" d="M160.688 14.0555C160.353 14.0244 160.007 14.0238 159.671 14.047C158.263 14.2368 157.116 14.7151 156.224 15.8845C155.118 17.3358 154.87 19.3704 155.123 21.1353C155.335 22.6106 156.02 24.0013 157.238 24.9011C158.293 25.681 159.702 25.967 160.992 25.7663C161.876 25.6289 163.027 25.1297 163.543 24.3601C163.564 24.3293 163.564 24.3264 163.569 24.3032C163.57 24.2959 163.572 24.2866 163.575 24.2737C163.78 24.1379 164.09 23.7786 164.129 23.5283C164.134 23.4969 164.132 23.4786 164.13 23.4497C164.129 23.4448 164.129 23.4395 164.128 23.4338C164.319 23.7632 164.299 24.8095 164.212 25.184C164.201 25.2344 164.176 25.2818 164.152 25.3273C164.15 25.3318 164.148 25.3363 164.146 25.3408C164.144 25.345 164.142 25.3491 164.14 25.3533L165.991 25.3534C166.05 25.2513 166.063 25.1789 166.066 25.0618C166.097 23.4093 166.085 21.7517 166.073 20.0955C166.067 19.2492 166.061 18.4033 166.061 17.5585C166.061 17.3946 166.067 17.1357 166.074 16.8361C166.094 16.0253 166.121 14.9162 166.051 14.583C166.039 14.5289 166.016 14.4794 165.991 14.4304H164.086C164.275 14.7368 164.231 15.8559 164.153 16.2104C164.137 16.2848 164.105 16.3498 164.069 16.417C164.096 16.141 163.813 15.8071 163.617 15.5764C163.595 15.5506 163.574 15.526 163.555 15.503C162.825 14.6225 161.816 14.16 160.688 14.0555ZM162.731 16.5782C161.854 15.9199 160.875 15.8497 159.823 15.9547C158.835 16.2153 158.116 16.584 157.581 17.5016C156.94 18.6016 156.899 20.1929 157.229 21.407C157.467 22.2817 157.981 23.0588 158.783 23.5074C159.543 23.9323 160.406 23.9985 161.255 23.9063C162.153 23.7741 162.909 23.4158 163.466 22.6785C164.185 21.7248 164.347 20.3684 164.181 19.2074C164.036 18.1823 163.572 17.2099 162.731 16.5782Z" fill="#FEFEFE"/>
<path d="M87.6797 21.6022L91.6603 12.2001C92.3712 10.5228 93.045 8.82275 93.8008 7.16553C94.0584 8.79902 94.4318 10.432 94.7494 12.0555C95.6155 16.483 96.5588 20.9125 97.3308 25.3567C96.6552 25.3668 95.9772 25.3553 95.3013 25.3542C95.0456 24.3128 94.8941 23.2204 94.6963 22.1654L93.5145 15.8327C93.3812 15.0801 93.2347 14.33 93.075 13.5825C92.377 14.9396 91.8305 16.4268 91.2284 17.8324L87.6767 26.0503L84.0673 17.7086C83.4729 16.3331 82.9284 14.8924 82.2465 13.56L80.0639 25.3574L78.02 25.3505L80.4026 13.1197C80.7812 11.176 81.0941 9.18489 81.5614 7.26214C81.8087 7.49863 87.0485 20.109 87.6797 21.6022Z" fill="#FEFEFE"/>
<path fill-rule="evenodd" clip-rule="evenodd" d="M179.379 6.8442C178.923 6.82762 178.442 6.81017 178.027 6.88942C178.149 7.27484 178.113 9.53174 178.093 10.8087C178.088 11.1455 178.083 11.4141 178.083 11.5622C178.084 12.0409 178.092 12.5246 178.101 13.0099C178.118 14.0405 178.136 15.0785 178.077 16.0921C178.07 16.1992 178.045 16.2923 177.994 16.3873C177.988 16.3987 177.982 16.4097 177.975 16.421C178.004 16.1819 177.781 15.8989 177.632 15.7103C177.624 15.7006 177.617 15.6911 177.61 15.6819C176.86 14.7313 175.878 14.1951 174.672 14.0652C173.355 13.9233 171.995 14.2215 170.947 15.0608C169.754 16.018 169.149 17.4609 168.993 18.952C168.82 20.6135 169.053 22.5986 170.149 23.9291C170.249 24.0508 170.439 24.2262 170.63 24.4037C170.878 24.6327 171.129 24.8653 171.197 24.9908C172.601 25.6907 174.027 26.122 175.587 25.611C176.491 25.3147 177.548 24.5304 177.987 23.6547C178.031 23.5667 178.046 23.5115 178.039 23.4139C178.174 23.7139 178.222 24.8975 178.108 25.2135C178.093 25.2542 178.075 25.2907 178.055 25.3288L178.042 25.3549L179.888 25.3555C179.929 25.2887 179.954 25.226 179.959 25.1469C179.986 24.7888 179.979 24.4186 179.973 24.0523C179.97 23.8897 179.967 23.728 179.967 23.5685L179.967 20.5441V10.9188C179.967 10.7324 179.973 10.42 179.979 10.0495C179.998 8.93328 180.027 7.28994 179.944 6.97691C179.932 6.93178 179.912 6.89698 179.888 6.85739C179.725 6.85679 179.554 6.85056 179.379 6.8442ZM176.654 16.5965C175.752 15.9113 174.746 15.8524 173.662 15.9541C172.724 16.1979 171.989 16.5979 171.48 17.4597C170.832 18.5546 170.805 20.1504 171.136 21.3639C171.388 22.2884 171.921 23.1201 172.773 23.5925C173.395 23.9377 174.435 24.1261 175.146 23.9506C175.174 23.9435 175.183 23.9387 175.202 23.9283C175.205 23.9266 175.209 23.9248 175.212 23.9228C176.062 23.8076 176.797 23.4026 177.323 22.7188C178.06 21.7608 178.245 20.3985 178.087 19.2214C177.947 18.1929 177.493 17.234 176.654 16.5965Z" fill="#FEFEFE"/>
</svg>
